<svg xmlns="http://www.w3.org/2000/svg" width="54.017" height="43.214" viewBox="0 0 54.017 43.214">
  <g id="Group_608" data-name="Group 608" transform="translate(-1311.566 -377)">
    <path id="Path_83" data-name="Path 83" d="M49.765,9,26.383,28.652,3,9" transform="translate(1312.355 372.656)" fill="none" stroke="#ffffff" stroke-linecap="round" stroke-linejoin="round" stroke-width="3"/>
    <g id="Path_275" data-name="Path 275" transform="translate(1308.566 371)" fill="none" stroke-linecap="round" stroke-linejoin="round">
      <path d="M8.4,6H51.615a5.418,5.418,0,0,1,5.4,5.4v32.41a5.418,5.418,0,0,1-5.4,5.4H8.4a5.418,5.418,0,0,1-5.4-5.4V11.4A5.418,5.418,0,0,1,8.4,6Z" stroke="none"/>
      <path d="M 8.401695251464844 8.999996185302734 C 7.766143798828125 8.999996185302734 7.164676666259766 9.251457214355469 6.708065032958984 9.708065032958984 C 6.251457214355469 10.16467666625977 5.999996185302734 10.76614761352539 5.999996185302734 11.40169525146484 L 5.999996185302734 43.81188583374023 C 5.999996185302734 44.44743728637695 6.25146484375 45.04891586303711 6.708065032958984 45.50552749633789 C 7.164676666259766 45.96212768554688 7.766155242919922 46.21359634399414 8.401695251464844 46.21359634399414 L 51.61528396606445 46.21359634399414 C 52.25083541870117 46.21359634399414 52.8523063659668 45.96212768554688 53.30891418457031 45.50552749633789 C 53.76552581787109 45.04891586303711 54.01698684692383 44.44743728637695 54.01698684692383 43.81188583374023 L 54.01698684692383 11.40169525146484 C 54.01698684692383 10.76614761352539 53.76552581787109 10.16467666625977 53.30891418457031 9.708065032958984 C 52.85231399536133 9.251457214355469 52.25083541870117 8.999996185302734 51.61528396606445 8.999996185302734 L 8.401695251464844 8.999996185302734 M 8.401695251464844 5.999996185302734 L 51.61528396606445 5.999996185302734 C 54.58622741699219 5.999996185302734 57.01698684692383 8.430767059326172 57.01698684692383 11.40169525146484 L 57.01698684692383 43.81188583374023 C 57.01698684692383 46.78281402587891 54.58622741699219 49.21359634399414 51.61528396606445 49.21359634399414 L 8.401695251464844 49.21359634399414 C 5.430767059326172 49.21359634399414 2.999996185302734 46.78281402587891 2.999996185302734 43.81188583374023 L 2.999996185302734 11.40169525146484 C 2.999996185302734 8.430767059326172 5.430767059326172 5.999996185302734 8.401695251464844 5.999996185302734 Z" stroke="none" fill="#ffffff"/>
    </g>
  </g>
</svg>
