<svg xmlns="http://www.w3.org/2000/svg" width="103" height="103" viewBox="0 0 103 103">
  <g id="Group_607" data-name="Group 607" transform="translate(-272 -272)">
    <g id="Chat_Bot" data-name="Chat Bot" transform="translate(272 272)">
      <circle id="Ellipse_16" data-name="Ellipse 16" cx="51.5" cy="51.5" r="51.5" fill="#1c7ed6"/>
    </g>
    <g id="Group_606" data-name="Group 606" transform="translate(252.71 185.682)">
      <path id="Path_288" data-name="Path 288" d="M67.373,42.46H63.615V38.7a6.27,6.27,0,0,0-6.263-6.263H51.09V28.683a1.253,1.253,0,0,0-1.253-1.253H39.818V24.747a5.01,5.01,0,1,0-2.505,0V27.43H27.293a1.253,1.253,0,0,0-1.253,1.253V32.44H19.778A6.27,6.27,0,0,0,13.515,38.7V42.46H9.758A3.762,3.762,0,0,0,6,46.218v15.03a3.762,3.762,0,0,0,3.758,3.758h3.758v3.758a6.27,6.27,0,0,0,6.263,6.263H57.353a6.27,6.27,0,0,0,6.263-6.263V65.005h3.758a3.762,3.762,0,0,0,3.758-3.758V46.218A3.762,3.762,0,0,0,67.373,42.46ZM36.06,19.915a2.505,2.505,0,1,1,2.505,2.505A2.508,2.508,0,0,1,36.06,19.915ZM9.758,62.5a1.255,1.255,0,0,1-1.253-1.253V46.218a1.255,1.255,0,0,1,1.253-1.253h3.758V62.5ZM28.545,29.935h20.04V32.44H28.545ZM61.11,68.763a3.762,3.762,0,0,1-3.758,3.758H19.778a3.762,3.762,0,0,1-3.758-3.758V38.7a3.762,3.762,0,0,1,3.758-3.758H57.353A3.762,3.762,0,0,1,61.11,38.7Zm7.515-7.515A1.255,1.255,0,0,1,67.373,62.5H63.615V44.965h3.758a1.255,1.255,0,0,1,1.253,1.253Z" transform="translate(32.29 90.413)" fill="#fff"/>
      <path id="Path_289" data-name="Path 289" d="M45.8,46.905H23.253A1.253,1.253,0,0,0,22,48.158V49.41a12.525,12.525,0,1,0,25.05,0V48.158A1.253,1.253,0,0,0,45.8,46.905ZM34.525,59.43a10.032,10.032,0,0,1-10.02-10.02h20.04A10.032,10.032,0,0,1,34.525,59.43Z" transform="translate(36.33 97.493)" fill="#fff"/>
      <path id="Path_290" data-name="Path 290" d="M21.045,38.427a1.522,1.522,0,1,0-1.522,1.522A1.524,1.524,0,0,0,21.045,38.427Zm-2.284,0a.761.761,0,1,1,.761.761A.762.762,0,0,1,18.761,38.427Z" transform="translate(38.444 97.801)" fill="#fff" stroke="#fff" stroke-linecap="round" stroke-width="3"/>
      <path id="Path_291" data-name="Path 291" d="M39.522,36.9a1.522,1.522,0,1,0,1.522,1.522A1.524,1.524,0,0,0,39.522,36.9Zm0,2.284a.761.761,0,1,1,.761-.761A.762.762,0,0,1,39.522,39.189Z" transform="translate(44.222 97.801)" fill="#fff" stroke="#fff" stroke-linecap="round" stroke-width="3"/>
    </g>
  </g>
</svg>
