<svg xmlns="http://www.w3.org/2000/svg" width="390.746" height="781.141" viewBox="0 0 390.746 781.141">
  <g id="Group_73" data-name="Group 73" transform="translate(1859.577 -922.4)">
    <ellipse id="Ellipse_24" data-name="Ellipse 24" cx="195.373" cy="26.929" rx="195.373" ry="26.929" transform="translate(-1859.577 1649.683)" fill="#e6e6e6"/>
    <path id="Path_129" data-name="Path 129" d="M726.044,420.319v46.1H753.7l3.688-46.1Z" transform="translate(-2448.314 1178.014)" fill="#a0616a"/>
    <path id="Path_130" data-name="Path 130" d="M766.372,431.932l11.061,25.813,18.438,7.375,3.688-51.627-14.75-7.374Z" transform="translate(-2423.187 1169.167)" fill="#a0616a"/>
    <path id="Path_131" data-name="Path 131" d="M947.392,659.163s-1.564-11.639-17.376-6.741l2.626,34.4s-12.907,38.719,5.531,35.031,29.5-38.72,29.5-38.72l12.906-59L949.413,615Z" transform="translate(-2580.238 964.061)" fill="#2f2e41"/>
    <path id="Path_132" data-name="Path 132" d="M875.611,401.382S849.8,596.823,859.017,618.949,965.034,783.967,965.034,783.967l42.407-55.314L912.487,609.729l88.5-121.69,7.375-73.751Z" transform="translate(-2624.615 830.96)" fill="#2f2e41"/>
    <path id="Path_133" data-name="Path 133" d="M803.548,237.994l24.341,12.881-.372,3.714L767.6,554.2l-46.1-9.219,30.423-211.114Z" transform="translate(-2451.145 1064.411)" fill="#2f2e41"/>
    <path id="Path_134" data-name="Path 134" d="M891.38,646.754l-11.063,16.593s-23.969,40.564,1.844,40.564,36.876,0,38.72-9.219a121.476,121.476,0,0,1,5.531-18.438l-1.844-23.969Z" transform="translate(-2616.415 983.846)" fill="#2f2e41"/>
    <circle id="Ellipse_27" data-name="Ellipse 27" cx="40.563" cy="40.563" r="40.563" transform="translate(-1693.692 939.18)" fill="#a0616a"/>
    <path id="Path_135" data-name="Path 135" d="M913,253.7s5.531,31.344-11.063,36.876,20.282,79.283,20.282,79.283L964.621,299.8s-11.063-23.969-3.687-35.032Z" transform="translate(-2599.31 738.946)" fill="#a0616a"/>
    <path id="Path_136" data-name="Path 136" d="M943.923,329.024,933.915,268.94l-19.492,12.146-51.626,29.5,20.282,86.659-7.375,53.47s-9.219,16.594-7.375,23.969-1.844,11.063,0,12.906,94.033,16.594,121.69,27.657,31.344,14.75,29.5,5.531-22.125-53.47-22.125-53.47l16.594-73.751,22.125-64.532L982.4,279.454Z" transform="translate(-2621.021 748.439)" fill="#575a89"/>
    <path id="Path_137" data-name="Path 137" d="M975.211,358.774l12.906,35.032-33.188,60.845-10.83,8.423a11.061,11.061,0,0,0-3.906,11.546l7.36,27.969,19.292-28.65s52.616-63.539,50.772-80.133-7.375-42.407-7.375-42.407Z" transform="translate(-2573.024 799.817)" fill="#a0616a"/>
    <path id="Path_138" data-name="Path 138" d="M875.849,337.767l-9.219,46.095L831.6,470.518s-38.72,36.876-20.282,44.251,40.563-36.876,40.563-36.876l44.251-82.97,16.594-49.782Z" transform="translate(-2656.198 791.323)" fill="#a0616a"/>
    <path id="Path_139" data-name="Path 139" d="M959.915,304.2l14.842-1.333,5.44,5.02s31.344,70.064,27.657,77.439-40.563,11.063-40.563,11.063l-14.75-44.25Z" transform="translate(-2565.104 769.577)" fill="#575a89"/>
    <path id="Path_140" data-name="Path 140" d="M886.889,297.268l-9.147-3.992-3.759,2.148s-36.876,73.751-27.657,77.439,53.47,9.219,53.47,9.219Z" transform="translate(-2632.205 763.602)" fill="#575a89"/>
    <path id="Path_141" data-name="Path 141" d="M744.031,328.6l-11.24,78-10.462-16.07Z" transform="translate(-2450.628 1120.864)" opacity="0.2"/>
    <path id="Path_142" data-name="Path 142" d="M969.831,243.743s4.085,10.753-14.877,5.241c0,0-7.511,3.662-7.074-2.588,0,0-10.355,9.744-12.324,3.326s-7.366,1.579-7.366,1.579l-4.085-10.753-5.25,5.913-16.846-1.177s-1.9-42,55.566-33.8,24.439,72.233,24.439,72.233.363-11.882-4.887-5.969S969.831,243.743,969.831,243.743Z" transform="translate(-2596.593 711.978)" fill="#2f2e41"/>
  </g>
</svg>
