<svg xmlns="http://www.w3.org/2000/svg" width="518.993" height="464.212" viewBox="0 0 518.993 464.212">
  <g id="Group_30" data-name="Group 30" transform="translate(0 -0.01)">
    <path id="Path_15" data-name="Path 15" d="M903.764,230.05c18.546,27.058,14.442,62.11,14.442,62.11s-34.172-8.818-52.718-35.876-14.442-62.11-14.442-62.11S885.218,202.992,903.764,230.05Z" transform="translate(-417.883 -139.621)" fill="#2f2e41"/>
    <path id="Path_16" data-name="Path 16" d="M907.877,226.508c2.17,32.732,27.08,57.731,27.08,57.731s21.392-28.069,19.222-60.8-27.08-57.731-27.08-57.731S905.707,193.776,907.877,226.508Z" transform="translate(-435.34 -130.912)" fill="#6c63ff"/>
    <path id="Path_17" data-name="Path 17" d="M591.3,116.265l251.79,126.59a11.906,11.906,0,0,1,6.531,11.44L834.992,470.985a5.9,5.9,0,0,1-8.547,4.867L568.913,344.421l13.221-222.874a6.332,6.332,0,0,1,9.165-5.283Z" transform="translate(-331.687 -115.58)" fill="#d0cde1"/>
    <path id="Path_18" data-name="Path 18" d="M595.717,122.634,841.322,246.115a11.614,11.614,0,0,1,6.371,11.159L833.423,468.641a5.754,5.754,0,0,1-8.337,4.748L573.88,345.187l12.9-217.4a6.177,6.177,0,0,1,8.94-5.153Z" transform="translate(-333.207 -117.533)" fill="#3f3d56"/>
    <path id="Path_19" data-name="Path 19" d="M612.126,146.291,834.759,258.223a10.528,10.528,0,0,1,5.775,10.115L827.6,459.937a5.216,5.216,0,0,1-7.558,4.3L592.331,348.029l11.69-197.067a5.6,5.6,0,0,1,8.1-4.671Z" transform="translate(-338.851 -124.79)" fill="#fff"/>
    <path id="Path_20" data-name="Path 20" d="M288.168,551.087,540.28,678.053a16.786,16.786,0,0,0,15.121-.02l186.5-94.676c2.187-2.187,1.881-5.428,1.182-7.861a17.512,17.512,0,0,0-1.379-3.4l-25.415-13.368L502.61,452.116l-12.767-6.777a23.639,23.639,0,0,0-21.957-.089l-179.8,93.4a6.981,6.981,0,0,0,.079,12.442Z" transform="translate(-244.619 -215.62)" fill="#d0cde1"/>
    <path id="Path_21" data-name="Path 21" d="M288.167,595.667,540.278,722.633a16.786,16.786,0,0,0,15.121-.02l186.5-94.676c2.187-2.187,1.881-5.428,1.182-7.861L557.138,716.728a16.221,16.221,0,0,1-14.714.126L284.4,588.308A6.952,6.952,0,0,0,288.167,595.667Z" transform="translate(-244.617 -260.2)" opacity="0.1"/>
    <path id="Path_22" data-name="Path 22" d="M572.319,634.991l-81.646-41.259a11.473,11.473,0,0,0-10.58.12l-47.364,25.3a3.388,3.388,0,0,0,.071,6.014l83.247,41.979a9.43,9.43,0,0,0,8.874-.2l47.552-26.79a2.917,2.917,0,0,0-.154-5.164Z" transform="translate(-289.475 -261.483)" opacity="0.1"/>
    <path id="Path_23" data-name="Path 23" d="M759.619,586.576,671.76,633.251a7.147,7.147,0,0,1-6.578.066L416.942,507.782a4.222,4.222,0,0,1,.032-7.551l85.8-42.465a9.3,9.3,0,0,1,8.313.03L759.58,583a2.014,2.014,0,0,1,.039,3.577Z" transform="translate(-284.485 -219.968)" opacity="0.1"/>
    <rect id="Rectangle_132" data-name="Rectangle 132" width="0.985" height="90.31" transform="matrix(0.447, -0.894, 0.894, 0.447, 334.527, 134.713)" fill="#6c63ff"/>
    <rect id="Rectangle_133" data-name="Rectangle 133" width="0.984" height="90.755" transform="translate(334.512 146.551) rotate(-62.909)" fill="#6c63ff"/>
    <rect id="Rectangle_134" data-name="Rectangle 134" width="0.985" height="51.986" transform="matrix(0.455, -0.89, 0.89, 0.455, 349.306, 169.184)" fill="#6c63ff"/>
    <path id="Path_24" data-name="Path 24" d="M353.187,427.507s-19.7-8.583-28.95.484S349.009,434.073,353.187,427.507Z" transform="translate(-256.347 -209.881)" fill="#3f3d56"/>
    <path id="Path_25" data-name="Path 25" d="M315.961,365.3c6.619-11.186,19.716-11.707,19.716-11.707s12.762-1.632,20.948,15.4c7.631,15.878,18.162,31.209,1.7,34.925l-2.974-9.257L353.5,404.61a64.431,64.431,0,0,1-7.045.12c-17.634-.569-34.427.167-33.887-6.161C313.291,390.158,309.592,376.061,315.961,365.3Z" transform="translate(-253.133 -188.38)" fill="#2f2e41"/>
    <path id="Path_26" data-name="Path 26" d="M297.982,662.62s8.357,15.52,13.729,15.52,4.775,10.147,3.581,12.535-4.178,7.76.6,15.52c1.668,2.711,1.37,5.785.275,8.639-3.067,8-15,5.573-14.616-2.982q.006-.142.015-.285c.6-9.551-4.178-24.473-8.954-28.055s-8.954-13.132-8.954-13.132Z" transform="translate(-244.417 -282.935)" fill="#ffb8b8"/>
    <path id="Path_27" data-name="Path 27" d="M378.448,657.46s-8.357,15.52-13.729,15.52-4.775,10.147-3.581,12.535,4.178,7.76-.6,15.52c-1.668,2.71-1.37,5.785-.275,8.639,3.067,8,15,5.573,14.616-2.982q-.006-.141-.015-.285c-.6-9.55,4.178-24.473,8.954-28.055s8.954-13.132,8.954-13.132Z" transform="translate(-267.58 -281.356)" fill="#ffb8b8"/>
    <path id="Path_28" data-name="Path 28" d="M331.423,544.484l3.581,7.76s52.528,17.31,47.753,37.605S354.7,641.78,351.121,640.586s-22.682-4.775-23.279-14.923,13.729-28.055,13.729-28.055l-19.7-17.907-28.664-.6-24.461,18.5s25.667,22.682,14.326,31.636-28.055,14.923-30.442,11.341-29.248-56.706-25.07-61.481,46.559-22.682,46.559-22.682l11.341-16.116,44.171-2.388Z" transform="translate(-227.121 -244.784)" fill="#2f2e41"/>
    <path id="Path_29" data-name="Path 29" d="M350.6,403.488s-2.984,19.7,2.985,22.086-11.938,12.535-11.938,12.535H331.5l-6.566-13.729s5.969-10.744,2.388-20.892S350.6,403.488,350.6,403.488Z" transform="translate(-257.047 -202.278)" fill="#ffb8b8"/>
    <path id="Path_30" data-name="Path 30" d="M350.6,403.488s-2.984,19.7,2.985,22.086-11.938,12.535-11.938,12.535H331.5l-6.566-13.729s5.969-10.744,2.388-20.892S350.6,403.488,350.6,403.488Z" transform="translate(-257.047 -202.278)" opacity="0.1"/>
    <path id="Path_31" data-name="Path 31" d="M351.1,429.557s-6.566,7.163-7.76,8.357-6.566,7.76-17.907-1.791-12.535,1.791-12.535,1.791v71.628s9.551-4.178,17.31,0,23.876-1.194,23.876-1.194l2.985-74.017Z" transform="translate(-253.363 -211.633)" fill="#d0cde1"/>
    <path id="Path_32" data-name="Path 32" d="M358.242,429.089s5.578-2.388,10.354,0,21.489,14.326,20.295,19.7-16.713,42.977-5.969,60.884,12.535,22.682,12.535,22.682l-26.264-13.729s-20.295-12.535-18.5-20.295S358.242,429.089,358.242,429.089Z" transform="translate(-264.891 -211.165)" fill="#3f3d56"/>
    <path id="Path_33" data-name="Path 33" d="M311.606,429.557s-12.528,1.194-13.125,2.388-18.8,6.268-17.609,11.64,17.609,53.423,10.446,62.377-19.1,21.489-14.923,22.682,11.341-1.791,18.5,0,23.876-13.132,22.086-29.248S316.971,433.735,311.606,429.557Z" transform="translate(-241.931 -211.633)" fill="#3f3d56"/>
    <path id="Path_34" data-name="Path 34" d="M365.233,592.5v5.969s2.985,13.729-6.566,13.132-3.581-16.713-3.581-16.713l.6-5.372Z" transform="translate(-265.706 -260.571)" fill="#ffb8b8"/>
    <path id="Path_35" data-name="Path 35" d="M326.819,594.679s6.566,13.729,0,14.923-11.341-7.76-11.341-10.147S326.819,594.679,326.819,594.679Z" transform="translate(-254.153 -262.149)" fill="#ffb8b8"/>
    <ellipse id="Ellipse_1" data-name="Ellipse 1" cx="1.194" cy="2.388" rx="1.194" ry="2.388" transform="translate(62.817 190.764)" fill="#ffb8b8"/>
    <ellipse id="Ellipse_2" data-name="Ellipse 2" cx="1.194" cy="2.388" rx="1.194" ry="2.388" transform="translate(98.035 190.764)" fill="#ffb8b8"/>
    <path id="Path_36" data-name="Path 36" d="M297.975,440.737s-14.923,0-14.326,5.969,20.295,108.637,20.295,108.637,8.357-7.76,15.52-5.969Z" transform="translate(-244.41 -215.053)" fill="#3f3d56"/>
    <path id="Path_37" data-name="Path 37" d="M377.194,443.317s14.923,2.985,14.923,11.938-21.489,94.908-24.473,94.908-14.326-1.791-14.326-4.775S377.194,443.317,377.194,443.317Z" transform="translate(-265.729 -215.843)" fill="#3f3d56"/>
    <path id="Path_38" data-name="Path 38" d="M377.068,468.687l-13.43,52.522S369.905,475.253,377.068,468.687Z" transform="translate(-268.886 -223.604)" opacity="0.2"/>
    <path id="Path_39" data-name="Path 39" d="M307.723,458.054l13.583,68.67S316.964,462.015,307.723,458.054Z" transform="translate(-251.78 -220.351)" opacity="0.2"/>
    <circle id="Ellipse_3" data-name="Ellipse 3" cx="17.31" cy="17.31" r="17.31" transform="translate(64.31 176.14)" fill="#ffb8b8"/>
    <path id="Path_40" data-name="Path 40" d="M94.466,250.357l12.939-6.777,17.867,2.772,3.7,16.327-9.2-.353-2.571-6v5.9l-4.246-.163-2.465-9.55-1.54,10.166-15.1-.307Z" transform="translate(-28.712 -74.516)" fill="#2f2e41"/>
    <path id="Path_41" data-name="Path 41" d="M371.135,103.793,364,120.763l60.223,31.611L444.512,93" transform="translate(-111.36 -28.449)" fill="#f2f2f2"/>
    <path id="Path_42" data-name="Path 42" d="M422.223,122.689l26.6-62.6L387.68,30,362,91.078Z" transform="translate(-110.748 -9.175)" fill="#6c63ff"/>
    <rect id="Rectangle_135" data-name="Rectangle 135" width="0.985" height="51.986" transform="matrix(0.455, -0.89, 0.89, 0.455, 275.04, 45.64)" fill="#fff"/>
    <rect id="Rectangle_136" data-name="Rectangle 136" width="0.985" height="51.986" transform="matrix(0.455, -0.89, 0.89, 0.455, 271.57, 53.969)" fill="#fff"/>
  </g>
</svg>
