<svg xmlns="http://www.w3.org/2000/svg" width="200" height="715.958" viewBox="0 0 200 715.958">
  <g id="Group_72" data-name="Group 72" transform="translate(2213.721 -1296.752)">
    <ellipse id="Ellipse_22" data-name="Ellipse 22" cx="192.138" cy="20.543" rx="192.138" ry="20.543" transform="translate(-2213.721 1971.623)" fill="#3f3d56"/>
    <path id="Path_101" data-name="Path 101" d="M934.947,765.96s-9.1,39.591-23.272,48.123S946.269,838.8,946.269,838.8s21.224,13.158,26.737,17.916,29.14,14.937,25.245,7.377-10.736-21.936-21.54-33.881-25.007-33.327-12.634-49.98S934.947,765.96,934.947,765.96Z" transform="translate(-3038.393 1124.834)" fill="#ffb9b9"/>
    <path id="Path_102" data-name="Path 102" d="M859.186,367.673l4.769-1.7s12.263-1.7,23.5,12.6,36.96,57.74,36.96,57.74l9.538,22.483-33.724,1.022-25.378-55.866Z" transform="translate(-2913.361 1041.481)" fill="#ff6584"/>
    <path id="Path_103" data-name="Path 103" d="M859.186,367.673l4.769-1.7s12.263-1.7,23.5,12.6,36.96,57.74,36.96,57.74l9.538,22.483-33.724,1.022-25.378-55.866Z" transform="translate(-2913.361 1041.481)" opacity="0.1"/>
    <path id="Path_104" data-name="Path 104" d="M972.138,653.632s-19.247,4.258-16.01,19.076-20.1,34.065-22.312,37.3-5.45,4.6-3.406,9.538-47.52,74.6-37.642,80.9,89.931,31,97.084,26.06S1002.8,659.934,1002.8,659.934Z" transform="translate(-3021.204 1101.448)" fill="#2f2e41"/>
    <path id="Path_105" data-name="Path 105" d="M972.138,653.632s-19.247,4.258-16.01,19.076-20.1,34.065-22.312,37.3-5.45,4.6-3.406,9.538-47.52,74.6-37.642,80.9,89.931,31,97.084,26.06S1002.8,659.934,1002.8,659.934Z" transform="translate(-3021.204 1101.448)" opacity="0.1"/>
    <path id="Path_106" data-name="Path 106" d="M793.6,800.958s11.923,38.834,3.917,53.311,42.316,4.1,42.316,4.1,24.96.778,32.114,2.141,32.7-1.64,25.55-6.239-20.269-13.626-35.6-18.565-38.323-16.351-35.938-36.96S793.6,800.958,793.6,800.958Z" transform="translate(-2798.888 1129.896)" fill="#ffb9b9"/>
    <path id="Path_107" data-name="Path 107" d="M930.5,479.077a37.54,37.54,0,0,0-22.653-6.983c-13.115.511-56.037,10.73-54.844,12.774a43.062,43.062,0,0,0,3.917,5.11s-2.725,12.434-1.533,13.626-23.334,29.3-9.027,89.59,12.774,102.024,12.774,102.024-5.791,176.8,10.73,180.372,81.585,1.192,84.651-5.791-9.368-223.8-9.368-223.8-1.362-109.007-4.6-122.292S930.5,479.077,930.5,479.077Z" transform="translate(-2913.484 1063.61)" fill="#2f2e41"/>
    <circle id="Ellipse_23" data-name="Ellipse 23" cx="41.048" cy="41.048" r="41.048" transform="translate(-2099.056 1306.703)" fill="#ffb9b9"/>
    <path id="Path_108" data-name="Path 108" d="M958.157,342.092s-25.378,24.867,5.961,44.114c22.067,13.552-53.311-10.56-53.311-10.56s15.67-40.026,13.285-49.223S958.157,342.092,958.157,342.092Z" transform="translate(-3009.947 1032.827)" fill="#ffb9b9"/>
    <path id="Path_109" data-name="Path 109" d="M925.306,373.181S890.049,357,884.258,362.791s-30.829,29.636-3.577,71.877,32.532,73.92,37.131,77.5,7.494-4.6,7.494-4.6,13.285-12.093,21.972-12.093,45.817,4.088,45.817,4.088l-10.39-41.218s5.11-32.532-12.263-48.712-36.449-42.751-36.449-42.751l-9.838-1.8,6.5,8.273S931.608,375.906,925.306,373.181Z" transform="translate(-2983.398 1040.571)" fill="#ff6584"/>
    <path id="Path_112" data-name="Path 112" d="M924.235,447.18s15.159,20.439,5.11,28.1-31.169-5.45-31.169-5.45-48.712,33.894-48.031,13.967,35.6-33.724,35.6-33.724l23.5.681L905.669,439l9.879-1.022Z" transform="translate(-2901.253 1056.503)" fill="#ffb9b9"/>
    <path id="Path_113" data-name="Path 113" d="M924.235,447.18s15.159,20.439,5.11,28.1-31.169-5.45-31.169-5.45-48.712,33.894-48.031,13.967,35.6-33.724,35.6-33.724l23.5.681L905.669,439l9.879-1.022Z" transform="translate(-2901.253 1056.503)" opacity="0.1"/>
    <path id="Path_114" data-name="Path 114" d="M855.488,429.667s95.722,73.75,101.853,47.861c3.985-16.826.92-58.255-1.715-85.2a83.509,83.509,0,0,0-24.735-51.721c-5.743-5.595-11.07-9.105-13.746-6.49-7.494,7.324,17.543,36.62,17.543,36.62s4.088,59.443-4.088,66.256c0,0-29.619-28.6-35.759-28.181S855.488,429.667,855.488,429.667Z" transform="translate(-2934.19 1034.672)" fill="#ffb9b9"/>
    <path id="Path_115" data-name="Path 115" d="M897.166,363.735c7.841-11.8,14.316-30.789,21.3-47.509,2.264-5.419,4.333-10.909,6.358-16.421,4.082-11.111,21.855-25.453,45.131-25.453,26.6,0,48.17,13.388,48.17,24.62,0,9.287-14.748,17.114-34.89,19.549,7.077,15.8,11.34,33.325,11.34,45.213,0,26.9-21.806,15.522-48.706,15.522S882.276,386.14,897.166,363.735Z" transform="translate(-3039.272 1022.4)" fill="#2f2e41"/>
    <path id="Path_116" data-name="Path 116" d="M908.908,376.571S891.875,420,930.2,429.882c0,0,7.494-10.39,19.758-12.093s23.164-14.477,23.164-14.477-25.038-35.257-44.625-35.938S908.908,376.571,908.908,376.571Z" transform="translate(-3008.049 1041.78)" fill="#ff6584"/>
  </g>
</svg>
