<svg xmlns="http://www.w3.org/2000/svg" width="122.353" height="112.183" viewBox="0 0 122.353 112.183">
  <g id="Logo-wo_Name" data-name="Logo-wo Name" transform="translate(2.035 2)">
    <g id="Group_28" data-name="Group 28" transform="translate(-291.467 201.483)">
      <g id="Group_26" data-name="Group 26" transform="translate(291.467 -201.483)">
        <path id="Path_11" data-name="Path 11" d="M333.082-302.8H215.524s-15.5,107.217,117.558,107.217" transform="translate(-214.971 302.8)" fill="#fff" stroke="#91a7ff" stroke-linecap="square" stroke-linejoin="round" stroke-width="4"/>
        <path id="Path_12" data-name="Path 12" d="M349.2-307.6v107.217" transform="translate(-231.088 307.6)" fill="#dbe4ff" stroke="#91a7ff" stroke-linecap="square" stroke-width="4"/>
        <path id="Path_13" data-name="Path 13" d="M215.65-302.75s33.794,62.078,115,47.5" transform="translate(-212.675 307.371)" fill="#dbe4ff" stroke="#91a7ff" stroke-linecap="square" stroke-width="4"/>
      </g>
      <path id="Path_14" data-name="Path 14" d="M409.655-201.483H291.96s18.905,32.511,49.964,45.946,67.731,6.641,67.731,6.641Z" transform="translate(-0.077 0.965)" fill="#bac8ff"/>
      <g id="Group_27" data-name="Group 27" transform="translate(291.467 -200.517)">
        <path id="Path_11-2" data-name="Path 11" d="M333.082-302.8H215.524s-15.5,107.217,117.558,107.217" transform="translate(-214.971 302.8)" fill="none" stroke="#1971c2" stroke-linecap="square" stroke-linejoin="round" stroke-width="4"/>
        <path id="Path_12-2" data-name="Path 12" d="M349.2-307.6v107.217" transform="translate(-231.088 307.6)" fill="none" stroke="#1971c2" stroke-linecap="square" stroke-width="4"/>
        <path id="Path_13-2" data-name="Path 13" d="M215.65-302.75s34.239,66.592,116.517,50.951" transform="translate(-214.187 303.756)" fill="none" stroke="#1971c2" stroke-linecap="square" stroke-width="4"/>
      </g>
    </g>
  </g>
</svg>
