<svg xmlns="http://www.w3.org/2000/svg" width="43.304" height="57.675" viewBox="0 0 43.304 57.675">
  <g id="Group_605" data-name="Group 605" transform="translate(-1181.679 -370.055)">
    <g id="files" transform="translate(1182.304 370.68)">
      <g id="Group_583" data-name="Group 583" transform="translate(0)">
        <g id="Group_582" data-name="Group 582" transform="translate(0)">
          <path id="Path_283" data-name="Path 283" d="M100.849,9.322a.853.853,0,0,0-.238-.6L92.235.248a.822.822,0,0,0-.592-.241V0H66.513A2.528,2.528,0,0,0,64,2.542V48.306a2.528,2.528,0,0,0,2.513,2.542H98.344a2.528,2.528,0,0,0,2.513-2.542V9.322ZM92.48,2.893,98,8.475H93.318a.843.843,0,0,1-.838-.847Zm6.7,45.413a.843.843,0,0,1-.838.847H66.513a.843.843,0,0,1-.838-.847V2.542a.843.843,0,0,1,.838-.847H90.805V7.627a2.528,2.528,0,0,0,2.513,2.542h5.864Z" transform="translate(-64)" fill="#fff" stroke="#fff" stroke-linecap="square" stroke-width="1.25"/>
        </g>
      </g>
      <g id="Group_585" data-name="Group 585" transform="translate(5.864 25.771)">
        <g id="Group_584" data-name="Group 584" transform="translate(0 0)">
          <g id="Path_284" data-name="Path 284" transform="translate(-120 -216)" fill="#fff" stroke-linecap="square">
            <path d="M 122.5129699707031 220.4598693847656 C 121.4719390869141 220.4598693847656 120.625 219.5997009277344 120.625 218.5424194335938 C 120.625 217.4851531982422 121.4719390869141 216.625 122.5129699707031 216.625 C 123.5540008544922 216.625 124.4009399414062 217.4851531982422 124.4009399414062 218.5424194335938 C 124.4009399414062 219.5997009277344 123.5540008544922 220.4598693847656 122.5129699707031 220.4598693847656 Z M 122.5129699707031 217.0699768066406 C 121.7064590454102 217.0699768066406 121.0503082275391 217.7304992675781 121.0503082275391 218.5424194335938 C 121.0503082275391 219.3543548583984 121.7064590454102 220.0149230957031 122.5129699707031 220.0149230957031 C 123.3194808959961 220.0149230957031 123.9756317138672 219.3543548583984 123.9756317138672 218.5424194335938 C 123.9756317138672 217.7304992675781 123.3194808959961 217.0699768066406 122.5129699707031 217.0699768066406 Z" stroke="none"/>
            <path d="M 122.5129699707031 216 C 123.90087890625 216 125.0259399414062 217.1382751464844 125.0259399414062 218.5424194335938 C 125.0259399414062 219.9466247558594 123.90087890625 221.0848693847656 122.5129699707031 221.0848693847656 C 121.1250762939453 221.0848693847656 120 219.9466247558594 120 218.5424194335938 C 120 217.1382751464844 121.1250762939453 216 122.5129699707031 216 Z M 122.5129699707031 219.3899230957031 C 122.9755706787109 219.3899230957031 123.3506317138672 219.0104675292969 123.3506317138672 218.5424194335938 C 123.3506317138672 218.0744018554688 122.9755706787109 217.6949768066406 122.5129699707031 217.6949768066406 C 122.0503768920898 217.6949768066406 121.6753082275391 218.0744018554688 121.6753082275391 218.5424194335938 C 121.6753082275391 219.0104675292969 122.0503768920898 219.3899230957031 122.5129699707031 219.3899230957031 Z" stroke="none" fill="#fff"/>
          </g>
        </g>
      </g>
      <g id="Group_587" data-name="Group 587" transform="translate(13.727 28.234)">
        <g id="Group_586" data-name="Group 586" transform="translate(0 0)">
          <rect id="Rectangle_1097" data-name="Rectangle 1097" width="18" height="1" transform="translate(-0.031 0.086)" fill="#fff" stroke="#fff" stroke-linecap="square" stroke-width="1.25"/>
        </g>
      </g>
      <g id="Group_589" data-name="Group 589" transform="translate(5.864 17.296)">
        <g id="Group_588" data-name="Group 588" transform="translate(0 0)">
          <g id="Path_285" data-name="Path 285" transform="translate(-120 -136)" fill="#fff" stroke-linecap="square">
            <path d="M 122.5129699707031 140.4598846435547 C 121.4719390869141 140.4598846435547 120.625 139.5997161865234 120.625 138.5424499511719 C 120.625 137.4851837158203 121.4719390869141 136.6250305175781 122.5129699707031 136.6250305175781 C 123.5540008544922 136.6250305175781 124.4009399414062 137.4851837158203 124.4009399414062 138.5424499511719 C 124.4009399414062 139.5997161865234 123.5540008544922 140.4598846435547 122.5129699707031 140.4598846435547 Z M 122.5129699707031 137.0699615478516 C 121.7064590454102 137.0699615478516 121.0503082275391 137.7305145263672 121.0503082275391 138.5424499511719 C 121.0503082275391 139.3543548583984 121.7064590454102 140.014892578125 122.5129699707031 140.014892578125 C 123.3194808959961 140.014892578125 123.9756317138672 139.3543548583984 123.9756317138672 138.5424499511719 C 123.9756317138672 137.7305145263672 123.3194808959961 137.0699615478516 122.5129699707031 137.0699615478516 Z" stroke="none"/>
            <path d="M 122.5129699707031 136.0000305175781 C 123.90087890625 136.0000305175781 125.0259399414062 137.1382598876953 125.0259399414062 138.5424499511719 C 125.0259399414062 139.9466094970703 123.90087890625 141.0848846435547 122.5129699707031 141.0848846435547 C 121.1250762939453 141.0848846435547 120 139.9466094970703 120 138.5424499511719 C 120 137.1382598876953 121.1250762939453 136.0000305175781 122.5129699707031 136.0000305175781 Z M 122.5129699707031 139.389892578125 C 122.9755706787109 139.389892578125 123.3506317138672 139.0104675292969 123.3506317138672 138.5424499511719 C 123.3506317138672 138.0744323730469 122.9755706787109 137.6949615478516 122.5129699707031 137.6949615478516 C 122.0503768920898 137.6949615478516 121.6753082275391 138.0744323730469 121.6753082275391 138.5424499511719 C 121.6753082275391 139.0104675292969 122.0503768920898 139.389892578125 122.5129699707031 139.389892578125 Z" stroke="none" fill="#fff"/>
          </g>
        </g>
      </g>
      <g id="Group_591" data-name="Group 591" transform="translate(13.727 19.25)">
        <g id="Group_590" data-name="Group 590" transform="translate(0 0)">
          <rect id="Rectangle_1098" data-name="Rectangle 1098" width="18" height="1" transform="translate(-0.031 0.07)" fill="#fff" stroke="#fff" stroke-linecap="square" stroke-width="1.25"/>
        </g>
      </g>
      <g id="Group_593" data-name="Group 593" transform="translate(5.864 34.246)">
        <g id="Group_592" data-name="Group 592" transform="translate(0 0)">
          <g id="Path_286" data-name="Path 286" transform="translate(-120 -296)" fill="#fff" stroke-linecap="square">
            <path d="M 122.5129699707031 300.4598693847656 C 121.4719390869141 300.4598693847656 120.625 299.5997314453125 120.625 298.54248046875 C 120.625 297.4851989746094 121.4719390869141 296.6250610351562 122.5129699707031 296.6250610351562 C 123.5540008544922 296.6250610351562 124.4009399414062 297.4851989746094 124.4009399414062 298.54248046875 C 124.4009399414062 299.5997314453125 123.5540008544922 300.4598693847656 122.5129699707031 300.4598693847656 Z M 122.5129699707031 297.0699462890625 C 121.7064590454102 297.0699462890625 121.0503082275391 297.7305297851562 121.0503082275391 298.54248046875 C 121.0503082275391 299.3543395996094 121.7064590454102 300.0148620605469 122.5129699707031 300.0148620605469 C 123.3194808959961 300.0148620605469 123.9756317138672 299.3543395996094 123.9756317138672 298.54248046875 C 123.9756317138672 297.7305297851562 123.3194808959961 297.0699462890625 122.5129699707031 297.0699462890625 Z" stroke="none"/>
            <path d="M 122.5129699707031 296.0000610351562 C 123.90087890625 296.0000610351562 125.0259399414062 297.1382446289062 125.0259399414062 298.54248046875 C 125.0259399414062 299.9465942382812 123.90087890625 301.0848693847656 122.5129699707031 301.0848693847656 C 121.1250762939453 301.0848693847656 120 299.9465942382812 120 298.54248046875 C 120 297.1382446289062 121.1250762939453 296.0000610351562 122.5129699707031 296.0000610351562 Z M 122.5129699707031 299.3898620605469 C 122.9755706787109 299.3898620605469 123.3506317138672 299.010498046875 123.3506317138672 298.54248046875 C 123.3506317138672 298.074462890625 122.9755706787109 297.6949462890625 122.5129699707031 297.6949462890625 C 122.0503768920898 297.6949462890625 121.6753082275391 298.074462890625 121.6753082275391 298.54248046875 C 121.6753082275391 299.010498046875 122.0503768920898 299.3898620605469 122.5129699707031 299.3898620605469 Z" stroke="none" fill="#fff"/>
          </g>
        </g>
      </g>
      <g id="Group_595" data-name="Group 595" transform="translate(13.727 37.217)">
        <g id="Group_594" data-name="Group 594" transform="translate(0 0)">
          <rect id="Rectangle_1099" data-name="Rectangle 1099" width="18" height="1" transform="translate(-0.031 0.103)" fill="#fff" stroke="#fff" stroke-linecap="square" stroke-width="1.25"/>
        </g>
      </g>
    </g>
    <path id="Path_287" data-name="Path 287" d="M12213.359,390.04v39.733h-37.281" transform="translate(-10989.627 -3.293)" fill="none" stroke="#fff" stroke-linecap="round" stroke-width="2.5"/>
  </g>
</svg>
